<mxfile host="app.diagrams.net" modified="2024-04-20T16:17:58.597Z" agent="Mozilla/5.0 (Macintosh; Intel Mac OS X 10_15_7) AppleWebKit/537.36 (KHTML, like Gecko) Chrome/124.0.0.0 Safari/537.36" etag="NoYdFBqYLAZaIiah919e" version="24.2.5" type="github">
  <diagram name="Page-1" id="Ymmz0jOcj70GcLxmy2Dk">
    <mxGraphModel dx="1235" dy="592" grid="1" gridSize="10" guides="1" tooltips="1" connect="1" arrows="1" fold="1" page="1" pageScale="1" pageWidth="850" pageHeight="1100" math="0" shadow="0">
      <root>
        <mxCell id="0" />
        <mxCell id="1" parent="0" />
      </root>
    </mxGraphModel>
  </diagram>
</mxfile>
